<mxfile host="app.diagrams.net" modified="2023-12-19T01:47:52.752Z" agent="Mozilla/5.0 (Windows NT 10.0; Win64; x64; rv:120.0) Gecko/20100101 Firefox/120.0" version="22.1.11" etag="ECF5dA00otz5RAe9VlLe" type="github">
  <diagram name="第 1 页" id="H3JFSGWq1g0kUyVUry_s">
    <mxGraphModel>
      <root>
        <mxCell id="0" />
        <mxCell id="1" parent="0" />
      </root>
    </mxGraphModel>
  </diagram>
</mxfile>
